<?xml version="1.0" encoding="UTF-8" standalone="no"?>
<svg width="856px" height="320px" viewBox="0 0 856 320" version="1.1" xmlns="http://www.w3.org/2000/svg" xmlns:xlink="http://www.w3.org/1999/xlink">
    <!-- Generator: Sketch 3.8.3 (29802) - http://www.bohemiancoding.com/sketch -->
    <title>Group</title>
    <desc>Created with Sketch.</desc>
    <defs></defs>
    <g id="Second-Font" stroke="none" stroke-width="1" fill="none" fill-rule="evenodd">
        <g id="Desktop-HD" transform="translate(-310.000000, -347.000000)" fill="#FFFFFF">
            <g id="Group" transform="translate(288.000000, 347.000000)">
                <path d="M596.204506,39.2354961 C585.405746,32.3962812 573.887068,26.2769837 562.008432,21.2375621 C551.929589,16.918058 540.77087,13.3184712 526.732481,10.078843 C519.173349,8.27904964 511.614216,6.83921492 502.975208,5.3993802 C495.776035,4.31950416 488.216902,3.23962812 479.577894,2.51971076 C472.018762,1.7997934 463.739712,1.07987604 454.740745,0.71991736 L453.30091,0.71991736 C446.821654,0.35995868 439.982439,0 433.143224,0 L429.183679,0 C416.585125,0.35995868 404.34653,1.07987604 391.747976,1.7997934 C378.429505,2.51971076 365.470992,4.31950416 352.872438,6.83921492 C338.474091,9.71888437 324.435703,13.6784298 311.47719,18.3578927 L311.117232,18.3578927 C305.357893,20.5176448 299.238595,22.6773969 293.839215,25.917025 C289.519711,28.4367357 287.719917,31.6763639 287.359959,35.6359093 C287,40.6753309 287,44.994835 287,49.3143392 C287,52.913926 288.439835,55.7935954 290.599587,58.3133062 C293.119298,60.833017 295.998967,62.2728517 298.518678,63.3527277 C307.157686,66.9523145 316.516612,70.1919426 326.955414,73.4315708 C345.673265,78.830951 363.31124,82.4305378 380.949216,84.2303312 C388.868306,84.9502485 397.147356,85.6701659 404.706488,86.0301246 C410.825786,86.3900832 416.945084,86.3900832 423.064381,86.7500419 C425.584092,86.7500419 428.463761,86.7500419 430.983472,87.1100006 L430.983472,87.1100006 L430.983472,87.1100006 C445.381819,87.1100006 457.980373,86.3900832 469.85901,85.3102072 L470.578927,85.3102072 C479.937853,84.2303312 489.656737,83.5104138 499.375621,82.0705791 C510.894299,80.2707857 523.492853,77.7510749 537.531241,73.7915294 C547.250126,70.91186 557.328969,67.3122732 568.847647,61.912893 C578.206572,57.9533475 587.205539,52.913926 596.564465,47.1545871 C597.284382,46.7946284 599.084176,45.7147524 599.084176,43.5550003 C598.364258,40.6753309 596.924424,39.5954548 596.204506,39.2354961 L596.204506,39.2354961 Z M591.165085,42.1151656 C582.526076,47.5145458 573.887068,52.1940086 564.528142,56.5135128 C554.809258,60.833017 544.730415,64.7925624 534.291613,67.6722319 C522.412977,70.91186 510.174382,73.7915294 497.575828,75.5913228 C488.216902,77.0311576 478.857977,77.7510749 469.139092,78.830951 C456.540538,80.2707857 443.941985,80.6307444 431.343431,80.6307444 C422.704422,80.2707857 414.425373,80.2707857 405.786364,79.910827 C398.227232,79.5508683 390.308141,78.830951 382.749009,78.1110336 C367.270786,76.6711989 351.792562,73.7915294 336.674298,69.4720253 C338.114133,66.2323972 340.633843,63.3527277 343.873471,61.5529343 C346.393182,60.1130996 348.912893,59.3931822 351.072645,59.3931822 C345.673265,57.2334302 338.83405,57.2334302 333.43467,60.4730583 C330.555,61.912893 328.395248,64.0726451 326.595455,66.5923558 C324.795661,65.8724385 322.635909,65.5124798 320.836116,64.7925624 C322.995868,57.9533475 328.755207,51.8340499 336.674298,49.3143392 C340.633843,47.8745045 344.593389,47.5145458 348.552934,48.2344631 C340.633843,43.1950416 330.555,41.3952482 320.836116,44.994835 C313.276984,47.5145458 307.517645,52.5539673 303.558099,59.0332236 C303.198141,59.0332236 302.838182,58.6732649 302.838182,58.6732649 C300.318471,57.5933888 297.79876,56.5135128 295.998967,54.3537607 C294.199174,52.5539673 293.479256,50.0342565 293.479256,47.5145458 C293.479256,43.1950416 293.479256,38.8755375 293.839215,34.5560333 C294.199174,31.3164052 295.998967,29.1566531 298.878636,27.3568597 C303.918058,24.1172316 309.677397,21.9574795 315.436736,20.1576861 C328.395248,15.4782232 341.713719,11.8786364 355.392149,8.99896701 C367.630744,6.47925624 380.229298,4.67946284 392.827852,3.95954548 C405.066447,3.23962812 417.305042,2.51971076 429.183679,2.15975208 C437.462728,1.7997934 445.741778,2.51971076 454.020828,2.87966944 C461.939919,3.23962812 470.218968,3.95954548 478.138059,4.67946284 C485.697191,5.3993802 493.256324,6.47925624 500.815456,7.55913228 C508.374588,8.99896701 516.293679,10.4388017 523.852812,12.2385951 C530.692027,14.0383885 537.8912,15.8381819 544.730415,17.997934 C544.730415,23.0373555 541.850746,27.7168184 537.171283,30.9564465 C535.011531,32.3962812 532.49182,33.1161986 529.972109,33.4761573 C535.731448,35.2759507 542.210704,34.915992 547.610084,31.3164052 C551.209671,28.7966944 553.729382,25.5570663 555.529175,21.9574795 C556.249093,22.3174382 556.96901,22.6773969 558.048886,23.0373555 C558.768804,23.3973142 559.84868,23.7572729 560.568597,24.1172316 C559.488721,32.0363225 553.729382,39.5954548 545.090374,43.1950416 C541.130828,44.6348763 537.171283,45.3547937 533.211737,44.994835 C541.490787,49.6742979 551.56963,50.7541739 560.928556,46.7946284 C568.127729,43.914959 573.527109,38.5155788 576.766738,32.0363225 C581.4462,34.5560333 586.125663,37.4357027 590.805126,40.3153722 C592.244961,41.0352895 592.244961,41.3952482 591.165085,42.1151656 L591.165085,42.1151656 Z" id="Shape"></path>
                <text id="Stoke-Your-Love-Life" font-family="MavenProBold, Maven Pro" font-size="58" font-weight="bold">
                    <tspan x="302" y="319">Stoke Your Love Life</tspan>
                </text>
                <text id="Rippinsick" font-family="Cantarell-BoldOblique, Cantarell" font-size="161" font-style="italic" font-weight="bold">
                    <tspan x="0" y="228">Rippinsick</tspan>
                </text>
            </g>
        </g>
    </g>
</svg>