<?xml version="1.0" encoding="UTF-8" standalone="no"?>
<svg width="857px" height="320px" viewBox="0 0 857 320" version="1.1" xmlns="http://www.w3.org/2000/svg" xmlns:xlink="http://www.w3.org/1999/xlink">
    <!-- Generator: Sketch 3.8.3 (29802) - http://www.bohemiancoding.com/sketch -->
    <title>Group</title>
    <desc>Created with Sketch.</desc>
    <defs></defs>
    <g id="Second-Font-Copy" stroke="none" stroke-width="1" fill="none" fill-rule="evenodd">
        <g id="Desktop-HD" transform="translate(-310.000000, -347.000000)" fill="#FFFFFF">
            <g id="Group" transform="translate(310.000000, 347.000000)">
                <path d="M574.204506,39.2354961 C563.405746,32.3962812 551.887068,26.2769837 540.008432,21.2375621 C529.929589,16.918058 518.77087,13.3184712 504.732481,10.078843 C497.173349,8.27904964 489.614216,6.83921492 480.975208,5.3993802 C473.776035,4.31950416 466.216902,3.23962812 457.577894,2.51971076 C450.018762,1.7997934 441.739712,1.07987604 432.740745,0.71991736 L431.30091,0.71991736 C424.821654,0.35995868 417.982439,0 411.143224,0 L407.183679,0 C394.585125,0.35995868 382.34653,1.07987604 369.747976,1.7997934 C356.429505,2.51971076 343.470992,4.31950416 330.872438,6.83921492 C316.474091,9.71888437 302.435703,13.6784298 289.47719,18.3578927 L289.117232,18.3578927 C283.357893,20.5176448 277.238595,22.6773969 271.839215,25.917025 C267.519711,28.4367357 265.719917,31.6763639 265.359959,35.6359093 C265,40.6753309 265,44.994835 265,49.3143392 C265,52.913926 266.439835,55.7935954 268.599587,58.3133062 C271.119298,60.833017 273.998967,62.2728517 276.518678,63.3527277 C285.157686,66.9523145 294.516612,70.1919426 304.955414,73.4315708 C323.673265,78.830951 341.31124,82.4305378 358.949216,84.2303312 C366.868306,84.9502485 375.147356,85.6701659 382.706488,86.0301246 C388.825786,86.3900832 394.945084,86.3900832 401.064381,86.7500419 C403.584092,86.7500419 406.463761,86.7500419 408.983472,87.1100006 L408.983472,87.1100006 L408.983472,87.1100006 C423.381819,87.1100006 435.980373,86.3900832 447.85901,85.3102072 L448.578927,85.3102072 C457.937853,84.2303312 467.656737,83.5104138 477.375621,82.0705791 C488.894299,80.2707857 501.492853,77.7510749 515.531241,73.7915294 C525.250126,70.91186 535.328969,67.3122732 546.847647,61.912893 C556.206572,57.9533475 565.205539,52.913926 574.564465,47.1545871 C575.284382,46.7946284 577.084176,45.7147524 577.084176,43.5550003 C576.364258,40.6753309 574.924424,39.5954548 574.204506,39.2354961 L574.204506,39.2354961 Z M569.165085,42.1151656 C560.526076,47.5145458 551.887068,52.1940086 542.528142,56.5135128 C532.809258,60.833017 522.730415,64.7925624 512.291613,67.6722319 C500.412977,70.91186 488.174382,73.7915294 475.575828,75.5913228 C466.216902,77.0311576 456.857977,77.7510749 447.139092,78.830951 C434.540538,80.2707857 421.941985,80.6307444 409.343431,80.6307444 C400.704422,80.2707857 392.425373,80.2707857 383.786364,79.910827 C376.227232,79.5508683 368.308141,78.830951 360.749009,78.1110336 C345.270786,76.6711989 329.792562,73.7915294 314.674298,69.4720253 C316.114133,66.2323972 318.633843,63.3527277 321.873471,61.5529343 C324.393182,60.1130996 326.912893,59.3931822 329.072645,59.3931822 C323.673265,57.2334302 316.83405,57.2334302 311.43467,60.4730583 C308.555,61.912893 306.395248,64.0726451 304.595455,66.5923558 C302.795661,65.8724385 300.635909,65.5124798 298.836116,64.7925624 C300.995868,57.9533475 306.755207,51.8340499 314.674298,49.3143392 C318.633843,47.8745045 322.593389,47.5145458 326.552934,48.2344631 C318.633843,43.1950416 308.555,41.3952482 298.836116,44.994835 C291.276984,47.5145458 285.517645,52.5539673 281.558099,59.0332236 C281.198141,59.0332236 280.838182,58.6732649 280.838182,58.6732649 C278.318471,57.5933888 275.79876,56.5135128 273.998967,54.3537607 C272.199174,52.5539673 271.479256,50.0342565 271.479256,47.5145458 C271.479256,43.1950416 271.479256,38.8755375 271.839215,34.5560333 C272.199174,31.3164052 273.998967,29.1566531 276.878636,27.3568597 C281.918058,24.1172316 287.677397,21.9574795 293.436736,20.1576861 C306.395248,15.4782232 319.713719,11.8786364 333.392149,8.99896701 C345.630744,6.47925624 358.229298,4.67946284 370.827852,3.95954548 C383.066447,3.23962812 395.305042,2.51971076 407.183679,2.15975208 C415.462728,1.7997934 423.741778,2.51971076 432.020828,2.87966944 C439.939919,3.23962812 448.218968,3.95954548 456.138059,4.67946284 C463.697191,5.3993802 471.256324,6.47925624 478.815456,7.55913228 C486.374588,8.99896701 494.293679,10.4388017 501.852812,12.2385951 C508.692027,14.0383885 515.8912,15.8381819 522.730415,17.997934 C522.730415,23.0373555 519.850746,27.7168184 515.171283,30.9564465 C513.011531,32.3962812 510.49182,33.1161986 507.972109,33.4761573 C513.731448,35.2759507 520.210704,34.915992 525.610084,31.3164052 C529.209671,28.7966944 531.729382,25.5570663 533.529175,21.9574795 C534.249093,22.3174382 534.96901,22.6773969 536.048886,23.0373555 C536.768804,23.3973142 537.84868,23.7572729 538.568597,24.1172316 C537.488721,32.0363225 531.729382,39.5954548 523.090374,43.1950416 C519.130828,44.6348763 515.171283,45.3547937 511.211737,44.994835 C519.490787,49.6742979 529.56963,50.7541739 538.928556,46.7946284 C546.127729,43.914959 551.527109,38.5155788 554.766738,32.0363225 C559.4462,34.5560333 564.125663,37.4357027 568.805126,40.3153722 C570.244961,41.0352895 570.244961,41.3952482 569.165085,42.1151656 L569.165085,42.1151656 Z" id="Shape"></path>
                <path d="M283.540039,291.104492 C283.540039,287.385073 284.8522,284.58139 287.476562,282.693359 C290.100925,280.805329 293.386048,279.861328 297.332031,279.861328 C300.806007,279.861328 304.270491,280.748689 307.725586,282.523438 L307.725586,289.291992 C304.742498,287.328441 301.551775,286.34668 298.15332,286.34668 C296.019846,286.34668 294.212084,286.71484 292.72998,287.451172 C291.247877,288.187504 290.506836,289.348625 290.506836,290.93457 C290.506836,292.218431 291.181797,293.223792 292.531738,293.950684 C293.88168,294.677575 295.514802,295.291176 297.431152,295.791504 C299.347503,296.291832 301.273265,296.919593 303.208496,297.674805 C305.143727,298.430017 306.786289,299.737458 308.13623,301.597168 C309.486172,303.456878 310.161133,305.85936 310.161133,308.804688 C310.161133,311.938818 308.867851,314.49706 306.28125,316.479492 C303.694649,318.461924 300.541685,319.453125 296.822266,319.453125 C291.913387,319.453125 287.655943,318.358084 284.049805,316.167969 L284.049805,309.087891 C287.372738,311.56121 291.092102,312.797852 295.208008,312.797852 C300.532253,312.797852 303.194336,311.31577 303.194336,308.351562 C303.194336,307.011061 302.712895,305.89714 301.75,305.009766 C300.787105,304.122391 299.569343,303.466311 298.09668,303.041504 C296.624016,302.616697 295.047534,302.116377 293.367188,301.540527 C291.686841,300.964678 290.110359,300.336917 288.637695,299.657227 C287.165032,298.977536 285.94727,297.915535 284.984375,296.471191 C284.02148,295.026848 283.540039,293.237966 283.540039,291.104492 L283.540039,291.104492 Z M313.333008,296.032227 L313.333008,290.056641 L318.204102,290.056641 L318.204102,281.475586 L325.170898,281.475586 L325.170898,290.056641 L332.024414,290.056641 L332.024414,296.032227 L325.170898,296.032227 L325.170898,310.305664 C325.170898,311.551764 325.430499,312.391925 325.949707,312.826172 C326.468915,313.260419 327.389316,313.477539 328.710938,313.477539 C329.957037,313.477539 331.061519,313.269859 332.024414,312.854492 L332.024414,318.603516 C330.665032,319.169925 329.182951,319.453125 327.578125,319.453125 L327.436523,319.453125 C324.566717,319.453125 322.310555,318.603524 320.667969,316.904297 C319.025382,315.20507 318.204102,312.863947 318.204102,309.880859 L318.204102,296.032227 L313.333008,296.032227 Z M337.433594,304.556641 C337.433594,299.761044 338.613595,296.07944 340.973633,293.511719 C343.333671,290.943998 346.717914,289.660156 351.126465,289.660156 C355.535016,289.660156 358.919259,290.943998 361.279297,293.511719 C363.639335,296.07944 364.819336,299.761044 364.819336,304.556641 C364.819336,309.352238 363.639335,313.033841 361.279297,315.601562 C358.919259,318.169284 355.535016,319.453125 351.126465,319.453125 C346.717914,319.453125 343.333671,318.169284 340.973633,315.601562 C338.613595,313.033841 337.433594,309.352238 337.433594,304.556641 L337.433594,304.556641 Z M344.400391,304.570801 C344.400391,308.167498 344.952631,310.593581 346.057129,311.849121 C347.161627,313.104661 348.856108,313.732422 351.140625,313.732422 C353.425142,313.732422 355.114903,313.104661 356.209961,311.849121 C357.305018,310.593581 357.852539,308.167498 357.852539,304.570801 C357.852539,300.974103 357.305018,298.543301 356.209961,297.27832 C355.114903,296.01334 353.425142,295.380859 351.140625,295.380859 C348.856108,295.380859 347.161627,296.01334 346.057129,297.27832 C344.952631,298.543301 344.400391,300.974103 344.400391,304.570801 L344.400391,304.570801 Z M371.644531,319 L371.644531,279.209961 L378.611328,279.209961 L378.611328,300.676758 L388.353516,290.056641 L397.585938,290.056641 L384.983398,302.942383 L398.916992,319 L390.109375,319 L380.537109,307.586914 L378.611328,309.541016 L378.611328,319 L371.644531,319 Z M401.975586,304.839844 C401.975586,300.195289 403.009267,296.485365 405.07666,293.709961 C407.144053,290.934556 410.424457,289.546875 414.917969,289.546875 C419.166037,289.546875 422.38036,290.896796 424.561035,293.59668 C426.74171,296.296563 427.832031,299.619446 427.832031,303.56543 C427.832031,305.189136 427.794271,306.388017 427.71875,307.162109 L409.112305,307.162109 C409.301108,309.67319 410.051588,311.353511 411.36377,312.203125 C412.675951,313.052739 414.379872,313.477539 416.475586,313.477539 C419.87404,313.477539 423.159164,312.731778 426.331055,311.240234 L426.331055,316.847656 C423.121403,318.584644 419.486999,319.453125 415.427734,319.453125 C414.143874,319.453125 412.935553,319.349285 411.802734,319.141602 C410.669916,318.933918 409.485195,318.499678 408.248535,317.838867 C407.011875,317.178057 405.945154,316.337896 405.04834,315.318359 C404.151525,314.298823 403.415205,312.887542 402.839355,311.084473 C402.263506,309.281404 401.975586,307.199882 401.975586,304.839844 L401.975586,304.839844 Z M409.112305,302.347656 L420.780273,302.347656 C420.59147,300.346344 420.00147,298.656582 419.010254,297.27832 C418.019038,295.900058 416.654957,295.210938 414.917969,295.210938 C413.180981,295.210938 411.826339,295.772618 410.854004,296.895996 C409.881668,298.019374 409.301108,299.836576 409.112305,302.347656 L409.112305,302.347656 Z M451.026367,280.314453 L459.4375,280.314453 L469.689453,296.032227 L479.884766,280.314453 L488.295898,280.314453 L473.172852,302.404297 L473.172852,319 L466.206055,319 L466.206055,302.404297 L451.026367,280.314453 Z M488.125977,304.556641 C488.125977,299.761044 489.305978,296.07944 491.666016,293.511719 C494.026053,290.943998 497.410297,289.660156 501.818848,289.660156 C506.227398,289.660156 509.611642,290.943998 511.97168,293.511719 C514.331718,296.07944 515.511719,299.761044 515.511719,304.556641 C515.511719,309.352238 514.331718,313.033841 511.97168,315.601562 C509.611642,318.169284 506.227398,319.453125 501.818848,319.453125 C497.410297,319.453125 494.026053,318.169284 491.666016,315.601562 C489.305978,313.033841 488.125977,309.352238 488.125977,304.556641 L488.125977,304.556641 Z M495.092773,304.570801 C495.092773,308.167498 495.645014,310.593581 496.749512,311.849121 C497.854009,313.104661 499.548491,313.732422 501.833008,313.732422 C504.117524,313.732422 505.807286,313.104661 506.902344,311.849121 C507.997401,310.593581 508.544922,308.167498 508.544922,304.570801 C508.544922,300.974103 507.997401,298.543301 506.902344,297.27832 C505.807286,296.01334 504.117524,295.380859 501.833008,295.380859 C499.548491,295.380859 497.854009,296.01334 496.749512,297.27832 C495.645014,298.543301 495.092773,300.974103 495.092773,304.570801 L495.092773,304.570801 Z M521.99707,305.887695 L521.99707,290.056641 L529.020508,290.056641 L529.020508,306.822266 C529.020508,309.144543 529.492508,310.815425 530.436523,311.834961 C531.380539,312.854497 532.91926,313.364258 535.052734,313.364258 C537.223969,313.364258 538.781571,312.854497 539.725586,311.834961 C540.669601,310.815425 541.141602,309.144543 541.141602,306.822266 L541.141602,290.056641 L548.165039,290.056641 L548.165039,305.887695 C548.165039,310.135763 547.003918,313.458647 544.681641,315.856445 C542.359363,318.254244 539.14976,319.453125 535.052734,319.453125 C530.955709,319.453125 527.755545,318.254244 525.452148,315.856445 C523.148752,313.458647 521.99707,310.135763 521.99707,305.887695 L521.99707,305.887695 Z M556.038086,319 L556.038086,292.662109 C556.510094,292.435546 557.161454,292.166505 557.992188,291.85498 C558.822921,291.543455 560.493803,291.099775 563.004883,290.523926 C565.515963,289.948077 568.008126,289.641276 570.481445,289.603516 L570.481445,295.635742 C567.573879,295.673503 565.081716,295.994463 563.004883,296.598633 L563.004883,319 L556.038086,319 Z M596.960938,319 L596.960938,280.314453 L603.927734,280.314453 L603.927734,312.401367 L622.53418,312.401367 L622.53418,319 L596.960938,319 Z M626.583984,304.556641 C626.583984,299.761044 627.763986,296.07944 630.124023,293.511719 C632.484061,290.943998 635.868305,289.660156 640.276855,289.660156 C644.685406,289.660156 648.06965,290.943998 650.429688,293.511719 C652.789725,296.07944 653.969727,299.761044 653.969727,304.556641 C653.969727,309.352238 652.789725,313.033841 650.429688,315.601562 C648.06965,318.169284 644.685406,319.453125 640.276855,319.453125 C635.868305,319.453125 632.484061,318.169284 630.124023,315.601562 C627.763986,313.033841 626.583984,309.352238 626.583984,304.556641 L626.583984,304.556641 Z M633.550781,304.570801 C633.550781,308.167498 634.103022,310.593581 635.20752,311.849121 C636.312017,313.104661 638.006499,313.732422 640.291016,313.732422 C642.575532,313.732422 644.265294,313.104661 645.360352,311.849121 C646.455409,310.593581 647.00293,308.167498 647.00293,304.570801 C647.00293,300.974103 646.455409,298.543301 645.360352,297.27832 C644.265294,296.01334 642.575532,295.380859 640.291016,295.380859 C638.006499,295.380859 636.312017,296.01334 635.20752,297.27832 C634.103022,298.543301 633.550781,300.974103 633.550781,304.570801 L633.550781,304.570801 Z M657.623047,290.056641 L665.042969,290.056641 L672.292969,311.919922 L679.542969,290.056641 L687.019531,290.056641 L675.946289,319 L668.696289,319 L657.623047,290.056641 Z M691.069336,304.839844 C691.069336,300.195289 692.103017,296.485365 694.17041,293.709961 C696.237803,290.934556 699.518207,289.546875 704.011719,289.546875 C708.259787,289.546875 711.47411,290.896796 713.654785,293.59668 C715.83546,296.296563 716.925781,299.619446 716.925781,303.56543 C716.925781,305.189136 716.888021,306.388017 716.8125,307.162109 L698.206055,307.162109 C698.394858,309.67319 699.145338,311.353511 700.45752,312.203125 C701.769701,313.052739 703.473622,313.477539 705.569336,313.477539 C708.96779,313.477539 712.252914,312.731778 715.424805,311.240234 L715.424805,316.847656 C712.215153,318.584644 708.580749,319.453125 704.521484,319.453125 C703.237624,319.453125 702.029303,319.349285 700.896484,319.141602 C699.763666,318.933918 698.578945,318.499678 697.342285,317.838867 C696.105625,317.178057 695.038904,316.337896 694.14209,315.318359 C693.245275,314.298823 692.508955,312.887542 691.933105,311.084473 C691.357256,309.281404 691.069336,307.199882 691.069336,304.839844 L691.069336,304.839844 Z M698.206055,302.347656 L709.874023,302.347656 C709.68522,300.346344 709.09522,298.656582 708.104004,297.27832 C707.112788,295.900058 705.748707,295.210938 704.011719,295.210938 C702.274731,295.210938 700.920089,295.772618 699.947754,296.895996 C698.975418,298.019374 698.394858,299.836576 698.206055,302.347656 L698.206055,302.347656 Z M744.453125,319 L744.453125,280.314453 L751.419922,280.314453 L751.419922,312.401367 L770.026367,312.401367 L770.026367,319 L744.453125,319 Z M776.370117,286.120117 L776.370117,279.748047 L783.478516,279.748047 L783.478516,286.120117 L776.370117,286.120117 Z M776.483398,319 L776.483398,290.056641 L783.421875,290.056641 L783.421875,319 L776.483398,319 Z M790.416992,296.032227 L790.416992,290.056641 L795.344727,290.056641 C795.382487,282.051392 798.979131,278.048828 806.134766,278.048828 C807.0599,278.048828 808.003901,278.143228 808.966797,278.332031 L808.966797,283.797852 C808.268226,283.72233 807.749025,283.68457 807.40918,283.68457 C805.596671,283.68457 804.293949,284.118811 803.500977,284.987305 C802.708004,285.855799 802.311523,287.54556 802.311523,290.056641 L808.966797,290.056641 L808.966797,296.032227 L802.311523,296.032227 L802.311523,319 L795.344727,319 L795.344727,296.032227 L790.416992,296.032227 Z M813.271484,304.839844 C813.271484,300.195289 814.305165,296.485365 816.372559,293.709961 C818.439952,290.934556 821.720355,289.546875 826.213867,289.546875 C830.461935,289.546875 833.676259,290.896796 835.856934,293.59668 C838.037609,296.296563 839.12793,299.619446 839.12793,303.56543 C839.12793,305.189136 839.09017,306.388017 839.014648,307.162109 L820.408203,307.162109 C820.597006,309.67319 821.347487,311.353511 822.659668,312.203125 C823.971849,313.052739 825.675771,313.477539 827.771484,313.477539 C831.169939,313.477539 834.455062,312.731778 837.626953,311.240234 L837.626953,316.847656 C834.417302,318.584644 830.782898,319.453125 826.723633,319.453125 C825.439772,319.453125 824.231451,319.349285 823.098633,319.141602 C821.965815,318.933918 820.781093,318.499678 819.544434,317.838867 C818.307774,317.178057 817.241053,316.337896 816.344238,315.318359 C815.447424,314.298823 814.711103,312.887542 814.135254,311.084473 C813.559405,309.281404 813.271484,307.199882 813.271484,304.839844 L813.271484,304.839844 Z M820.408203,302.347656 L832.076172,302.347656 C831.887369,300.346344 831.297368,298.656582 830.306152,297.27832 C829.314936,295.900058 827.950855,295.210938 826.213867,295.210938 C824.476879,295.210938 823.122238,295.772618 822.149902,296.895996 C821.177567,298.019374 820.597006,299.836576 820.408203,302.347656 L820.408203,302.347656 Z" id="Stoke-Your-Love-Life"></path>
                <path d="M110.227539,148.286133 C108.078765,155.833046 104.187447,162.580618 98.5534668,168.529053 C92.9194868,174.477487 85.490606,178.735664 76.2666016,181.303711 L96.6274414,228 L70.8422852,228 L51.9750977,184.684082 L33.0292969,184.684082 L20.6083984,228 L0.797851562,228 L32.793457,116.290527 L80.3544922,116.290527 C101.422957,116.290527 111.957031,123.260835 111.957031,137.20166 C111.957031,140.451025 111.38054,144.145813 110.227539,148.286133 L110.227539,148.286133 Z M47.4155273,134.450195 L38.2963867,166.445801 L56.534668,166.445801 C60.5701699,166.445801 64.081528,166.262372 67.0688477,165.895508 C70.0561673,165.528644 73.1351567,164.808029 76.3059082,163.733643 C79.4766597,162.659256 82.1363825,160.982189 84.2851562,158.702393 C86.43393,156.422596 88.0061799,153.55324 89.0019531,150.094238 C89.4736352,148.469556 89.7094727,146.949714 89.7094727,145.534668 C89.7094727,138.144983 82.9225939,134.450195 69.3486328,134.450195 L47.4155273,134.450195 Z M148.82666,116.290527 L170.523926,116.290527 L164.470703,137.594727 L142.773438,137.594727 L148.82666,116.290527 Z M140.257812,150.330078 L159.59668,150.330078 L137.349121,228 L118.010254,228 L140.257812,150.330078 Z M227.833008,150.801758 C231.029964,150.801758 234.056545,151.063799 236.912842,151.587891 C239.769139,152.111982 242.533678,152.989821 245.206543,154.221436 C247.879408,155.45305 250.185374,156.999096 252.124512,158.859619 C254.063649,160.720143 255.622797,163.117824 256.802002,166.052734 C257.981207,168.987645 258.570801,172.28937 258.570801,175.958008 C258.570801,179.888692 257.863288,184.369604 256.448242,189.400879 C252.884422,201.926658 246.254769,211.75322 236.559082,218.880859 C226.863396,226.008499 215.5694,229.572266 202.676758,229.572266 C196.649709,229.572266 191.015814,228.681324 185.774902,226.899414 L173.432617,269.743652 L153.307617,269.743652 L187.032715,152.29541 L201.340332,152.29541 L202.047852,155.990234 C210.957401,152.531233 219.552367,150.801758 227.833008,150.801758 L227.833008,150.801758 Z M217.849121,167.939453 C212.713028,167.939453 207.393582,168.804191 201.890625,170.533691 L190.413086,210.705078 C195.49677,212.224942 200.396949,212.984863 205.11377,212.984863 C208.04868,212.984863 210.957342,212.670413 213.839844,212.041504 C216.722345,211.412595 219.735824,210.351326 222.880371,208.857666 C226.024918,207.364006 228.841866,205.110448 231.331299,202.096924 C233.820732,199.0834 235.668125,195.480327 236.873535,191.287598 C237.712081,188.300278 238.131348,185.601249 238.131348,183.19043 C238.131348,180.20311 237.502448,177.648204 236.244629,175.525635 C234.98681,173.403066 233.296641,171.817714 231.174072,170.769531 C229.051503,169.721349 226.915864,168.987632 224.76709,168.568359 C222.618316,168.149086 220.31235,167.939453 217.849121,167.939453 L217.849121,167.939453 Z M332.152832,150.801758 C335.349788,150.801758 338.376369,151.063799 341.232666,151.587891 C344.088963,152.111982 346.853502,152.989821 349.526367,154.221436 C352.199232,155.45305 354.505199,156.999096 356.444336,158.859619 C358.383473,160.720143 359.942621,163.117824 361.121826,166.052734 C362.301031,168.987645 362.890625,172.28937 362.890625,175.958008 C362.890625,179.888692 362.183113,184.369604 360.768066,189.400879 C357.204247,201.926658 350.574593,211.75322 340.878906,218.880859 C331.18322,226.008499 319.889225,229.572266 306.996582,229.572266 C300.969534,229.572266 295.335638,228.681324 290.094727,226.899414 L277.752441,269.743652 L257.627441,269.743652 L291.352539,152.29541 L305.660156,152.29541 L306.367676,155.990234 C315.277226,152.531233 323.872192,150.801758 332.152832,150.801758 L332.152832,150.801758 Z M322.168945,167.939453 C317.032852,167.939453 311.713406,168.804191 306.210449,170.533691 L294.73291,210.705078 C299.816594,212.224942 304.716773,212.984863 309.433594,212.984863 C312.368504,212.984863 315.277167,212.670413 318.159668,212.041504 C321.042169,211.412595 324.055648,210.351326 327.200195,208.857666 C330.344742,207.364006 333.16169,205.110448 335.651123,202.096924 C338.140556,199.0834 339.98795,195.480327 341.193359,191.287598 C342.031905,188.300278 342.451172,185.601249 342.451172,183.19043 C342.451172,180.20311 341.822272,177.648204 340.564453,175.525635 C339.306634,173.403066 337.616466,171.817714 335.493896,170.769531 C333.371327,169.721349 331.235688,168.987632 329.086914,168.568359 C326.93814,168.149086 324.632174,167.939453 322.168945,167.939453 L322.168945,167.939453 Z M405.105957,116.290527 L426.803223,116.290527 L420.75,137.594727 L399.052734,137.594727 L405.105957,116.290527 Z M396.537109,150.330078 L415.875977,150.330078 L393.628418,228 L374.289551,228 L396.537109,150.330078 Z M443.312012,152.29541 L456.833496,152.29541 L457.934082,157.641113 C469.93577,153.029111 480.469844,150.723145 489.536621,150.723145 C504.473219,150.723145 511.941406,156.67149 511.941406,168.568359 C511.941406,172.499043 511.102873,177.399222 509.425781,183.269043 L496.611816,228 L477.272949,228 L489.929688,183.819336 C490.611006,181.303698 490.95166,179.312182 490.95166,177.844727 C490.95166,171.817678 486.575565,168.804199 477.823242,168.804199 C471.953421,168.804199 464.904501,170.19302 456.67627,172.970703 L440.953613,228 L421.614746,228 L443.312012,152.29541 Z M580.020508,205.202148 C580.020508,205.149739 580.03361,205.058025 580.059814,204.927002 C580.086019,204.795979 580.099121,204.704265 580.099121,204.651855 C580.099121,203.394037 579.064057,202.254156 576.993896,201.232178 C574.923736,200.2102 572.355728,199.358565 569.289795,198.677246 C566.223862,197.995928 562.882831,197.091884 559.266602,195.965088 C555.650373,194.838292 552.309342,193.6329 549.243408,192.348877 C546.177475,191.064854 543.609467,189.256766 541.539307,186.924561 C539.469147,184.592355 538.434082,181.906428 538.434082,178.866699 C538.434082,177.451653 538.66992,175.931812 539.141602,174.307129 C539.718102,172.315582 540.661452,170.310964 541.97168,168.293213 C543.281908,166.275462 545.234118,164.192231 547.828369,162.043457 C550.42262,159.894683 553.462304,158.007983 556.94751,156.383301 C560.432716,154.758618 564.835016,153.422206 570.154541,152.374023 C575.474066,151.325841 581.304493,150.801758 587.645996,150.801758 C591.367043,150.801758 594.668768,150.998289 597.55127,151.391357 C600.433771,151.784426 602.451492,152.138182 603.604492,152.452637 C604.757493,152.767091 606.486968,153.317379 608.792969,154.103516 L611.780273,155.046875 L601.875,170.848145 L599.123535,170.140625 C592.939259,168.253897 586.702668,167.310547 580.413574,167.310547 C576.482891,167.310547 573.063247,167.611895 570.154541,168.2146 C567.245835,168.817304 565.083991,169.590327 563.668945,170.533691 C562.253899,171.477055 561.245039,172.302487 560.642334,173.01001 C560.039629,173.717533 559.633465,174.385739 559.423828,175.014648 C559.371419,175.171876 559.345215,175.381509 559.345215,175.643555 C559.345215,176.953783 560.786444,178.185378 563.668945,179.338379 C566.551447,180.491379 570.036601,181.618159 574.124512,182.71875 C578.212423,183.819341 582.313375,185.077141 586.42749,186.492188 C590.541606,187.907234 594.039862,189.911852 596.922363,192.506104 C599.804865,195.100355 601.246094,198.126936 601.246094,201.585938 C601.246094,202.791347 601.03646,204.153964 600.617188,205.673828 C599.988278,207.875011 599.05803,209.984446 597.826416,212.002197 C596.594802,214.019948 594.747408,216.129384 592.28418,218.330566 C589.820951,220.531749 586.899187,222.431551 583.518799,224.030029 C580.138411,225.628507 575.840928,226.951818 570.626221,228 C565.411514,229.048182 559.607291,229.572266 553.213379,229.572266 C543.255647,229.572266 533.926964,227.528341 525.227051,223.44043 L522.711426,222.26123 L532.852539,206.853027 L535.446777,207.953613 C543.675009,211.307797 551.379033,212.984863 558.559082,212.984863 C571.399316,212.984863 578.553053,210.390651 580.020508,205.202148 L580.020508,205.202148 Z M647.942383,116.290527 L669.639648,116.290527 L663.586426,137.594727 L641.88916,137.594727 L647.942383,116.290527 Z M639.373535,150.330078 L658.712402,150.330078 L636.464844,228 L617.125977,228 L639.373535,150.330078 Z M670.976074,191.759277 C672.705575,185.784638 675.06395,180.438988 678.05127,175.722168 C681.038589,171.005348 684.366518,167.114029 688.035156,164.048096 C691.703794,160.982162 695.778542,158.440358 700.259521,156.422607 C704.740501,154.404856 709.221413,152.976729 713.702393,152.138184 C718.183372,151.299638 722.834611,150.880371 727.65625,150.880371 C736.408572,150.880371 743.981576,152.505029 750.375488,155.754395 L752.733887,156.933594 L743.378906,172.105957 L740.706055,171.083984 C735.989234,169.302074 730.669789,168.411133 724.747559,168.411133 C705.985095,168.411133 694.612487,175.407645 690.629395,189.400879 C689.843258,192.230971 689.450195,194.746571 689.450195,196.947754 C689.450195,207.324759 697.573486,212.513184 713.820312,212.513184 C718.641951,212.513184 723.54213,211.727059 728.520996,210.154785 L731.822754,209.211426 L732.766113,223.912109 L729.542969,225.012695 C721.000283,228.052424 712.274296,229.572266 703.364746,229.572266 C699.59129,229.572266 696.079932,229.323326 692.830566,228.825439 C689.581201,228.327553 686.462906,227.48902 683.475586,226.309814 C680.488266,225.130609 677.946462,223.610768 675.850098,221.750244 C673.753733,219.889721 672.076666,217.518244 670.818848,214.635742 C669.561029,211.753241 668.932129,208.451516 668.932129,204.730469 C668.932129,200.799785 669.613437,196.476098 670.976074,191.759277 L670.976074,191.759277 Z M787.245117,181.539551 L832.998047,148.757812 L856.346191,148.757812 L806.426758,184.291016 L834.806152,228 L811.064941,228 L785.043945,189.322266 L773.959473,228 L754.620605,228 L788.660156,109.215332 L807.999023,109.215332 L787.245117,181.539551 Z" id="Rippinsick"></path>
            </g>
        </g>
    </g>
</svg>